<svg width="412" xmlns="http://www.w3.org/2000/svg" height="288" id="screenshot-1402999b-6671-8055-8004-d9cea77eb1ee" viewBox="0 0 412 288" xmlns:xlink="http://www.w3.org/1999/xlink" fill="none" version="1.1"><g id="shape-1402999b-6671-8055-8004-d9cea77eb1ee" data-testid="Camada_x0020_1" rx="0" ry="0" style="fill: rgb(0, 0, 0);"><g id="shape-1402999b-6671-8055-8004-d9cea77eb209" data-testid="_180116344" rx="0" ry="0" style="fill: rgb(0, 0, 0);"><g id="shape-1402999b-6671-8055-8004-d9cea77eb20a" data-testid="svg-polygon"><g class="fills" id="fills-1402999b-6671-8055-8004-d9cea77eb20a"><path d="M31.703,32.015L31.703,192.023L63.406,192.023L63.406,64.031L95.109,64.031L95.109,192.023L126.812,192.023L126.812,64.031L158.446,64.031L158.446,224.038L0.000,224.038L0.000,0.000L412.000,0.000L412.000,32.015Z" class="fil0" style="shape-rendering: geometricprecision; text-rendering: geometricprecision; fill-rule: evenodd; clip-rule: evenodd; fill: rgb(255, 255, 255); fill-opacity: 1;"/></g></g><g id="shape-1402999b-6671-8055-8004-d9cea77eb20b" data-testid="svg-path"><g class="fills" id="fills-1402999b-6671-8055-8004-d9cea77eb20b"><path d="M285.257,160.008L285.257,64.031L190.149,64.031L190.149,224.038L285.257,224.038L285.257,192.023L221.851,192.023L221.851,160.008L285.257,160.008ZZM253.554,127.992L221.851,127.992L221.851,95.977L253.554,95.977L253.554,127.992ZZ" class="fil0" style="shape-rendering: geometricprecision; text-rendering: geometricprecision; fill-rule: evenodd; clip-rule: evenodd; fill: rgb(255, 255, 255); fill-opacity: 1;"/></g></g><g id="shape-1402999b-6671-8055-8004-d9cea77eb20c" data-testid="svg-path"><g class="fills" id="fills-1402999b-6671-8055-8004-d9cea77eb20c"><path d="M412.000,64.031L316.960,64.031L316.960,224.038L380.366,224.038L380.366,256.053L0.000,256.053L0.000,288.000L412.000,288.000L412.000,64.031ZZM380.297,192.023L348.594,192.023L348.594,95.977L380.297,95.977L380.297,192.023ZZ" class="fil0" style="shape-rendering: geometricprecision; text-rendering: geometricprecision; fill-rule: evenodd; clip-rule: evenodd; fill: rgb(255, 255, 255); fill-opacity: 1;"/></g></g></g></g></svg>